<svg width="120" height="70" viewBox="0 500 1000 1" xmlns="http://www.w3.org/2000/svg"><defs/><path fill="#305a8f" transform="matrix(0.7321549225117367 0 0 0.7321549225117367 13.070839781427239 38.798086905049566)" d="M 187.0221124087 541.52393947547 C 187.0221124087 541.52393947547 298.6221124087 648.82393947547 287.0221124087 795.62393947547 C 317.8221124087 769.72393947547 448.7221124087 659.82393947547 448.7221124087 659.82393947547 L 187.0221124087 541.52393947547 Z"/><path fill="#80bb3b" transform="matrix(0.7321549225117367 0 0 0.7321549225117367 13.070839781427239 38.798086905049566)" d="M 256.4221124087 874.92393947547 L 589.4221124087 734.02393947547 L 528.7221124087 705.42393947547 C 528.7221124087 705.42393947547 540.3221124087 490.12393947547 540.0221124087 384.92393947547 C 422.9221124087 738.92393947547 256.4221124087 874.92393947547 256.4221124087 874.92393947547 Z"/><path id="text" fill="#305a8f" transform="matrix(2.1348419024966145 0 0 2.1348419024966145 335.4262927357756 178.93503466041182)" d="M 105.48397866542 127.20885343056 L 105.48397866542 131.14485343056 C 105.48397866542 142.02485343056 102.76397866542 149.54485343056 97.32397866542 153.70485343056 C 100.84397866542 153.51285343056 104.10797866542 152.96885343056 107.11597866542 152.07285343056 L 107.11597866542 163.88085343056 L 78.31597866542 163.88085343056 C 74.34797866542 163.88085343056 70.53997866542 163.22485343056 66.89197866542 161.91285343056 C 63.24397866542 160.60085343056 60.09197866542 158.61685343056 57.43597866542 155.96085343056 C 54.77997866542 153.30485343056 53.06797866542 150.12085343056 52.29997866542 146.40885343056 C 51.53197866542 142.69685343056 51.14797866542 137.54485343056 51.14797866542 130.95285343056 L 51.14797866542 127.30485343056 C 51.14797866542 120.71285343056 51.53197866542 115.56085343056 52.29997866542 111.84885343056 C 53.06797866542 108.13685343056 54.77997866542 104.95285343056 57.43597866542 102.29685343056 C 60.09197866542 99.64085343056 63.24397866542 97.65685343056 66.89197866542 96.34485343056 C 70.53997866542 95.03285343056 74.34797866542 94.37685343056 78.31597866542 94.37685343056 C 82.28397866542 94.37685343056 86.07597866542 95.03285343056 89.69197866542 96.34485343056 C 93.30797866542 97.65685343056 96.47597866542 99.67285343056 99.19597866542 102.39285343056 C 101.91597866542 105.11285343056 103.64397866542 108.23285343056 104.37997866542 111.75285343056 C 105.11597866542 115.27285343056 105.48397866542 120.42485343056 105.48397866542 127.20885343056 Z M 92.13997866542 130.56885343056 L 92.13997866542 125.96085343056 C 92.13997866542 117.96085343056 91.05197866542 112.71285343056 88.87597866542 110.21685343056 C 86.69997866542 107.59285343056 83.17997866542 106.28085343056 78.31597866542 106.28085343056 C 73.45197866542 106.28085343056 69.86797866542 107.62485343056 67.56397866542 110.31285343056 C 65.89997866542 112.29685343056 64.93997866542 115.75285343056 64.68397866542 120.68085343056 C 64.55597866542 122.28085343056 64.49197866542 124.48885343056 64.49197866542 127.30485343056 L 64.49197866542 130.85685343056 C 64.55597866542 137.64085343056 65.06797866542 142.28085343056 66.02797866542 144.77685343056 C 67.81997866542 149.57685343056 71.91597866542 151.97685343056 78.31597866542 151.97685343056 C 83.88397866542 151.97685343056 87.59597866542 150.37685343056 89.45197866542 147.17685343056 C 90.66797866542 144.87285343056 91.40397866542 142.63285343056 91.65997866542 140.45685343056 C 91.97997866542 137.70485343056 92.13997866542 134.40885343056 92.13997866542 130.56885343056 Z M 167.59597866542 122.50485343056 L 155.30797866542 148.42485343056 C 153.51597866542 151.88085343056 151.29197866542 153.60885343056 148.63597866542 153.60885343056 C 145.97997866542 153.60885343056 143.75597866542 151.78485343056 141.96397866542 148.13685343056 L 129.48397866542 122.50485343056 L 129.48397866542 163.30485343056 L 116.13997866542 163.30485343056 L 116.13997866542 94.95285343056 L 129.29197866542 94.95285343056 L 148.58797866542 134.40885343056 L 167.78797866542 94.95285343056 L 180.93997866542 94.95285343056 L 180.93997866542 163.30485343056 L 167.59597866542 163.30485343056 L 167.59597866542 122.50485343056 Z M 241.03597866542 143.14485343056 C 241.03597866542 149.60885343056 238.66797866542 154.68085343056 233.93197866542 158.36085343056 C 229.19597866542 162.04085343056 223.14797866542 163.88085343056 215.78797866542 163.88085343056 C 209.96397866542 163.88085343056 204.33197866542 162.28085343056 198.89197866542 159.08085343056 C 196.20397866542 157.41685343056 193.99597866542 155.06485343056 192.26797866542 152.02485343056 C 190.53997866542 148.98485343056 189.67597866542 145.51285343056 189.67597866542 141.60885343056 L 201.77197866542 141.03285343056 C 201.77197866542 144.48885343056 203.24397866542 147.17685343056 206.18797866542 149.09685343056 C 209.13197866542 151.01685343056 212.39597866542 151.97685343056 215.97997866542 151.97685343056 C 223.97997866542 151.97685343056 227.97997866542 149.16085343056 227.97997866542 143.52885343056 C 227.97997866542 138.92085343056 225.25997866542 136.20085343056 219.81997866542 135.36885343056 L 208.68397866542 134.21685343056 C 203.11597866542 133.38485343056 198.69997866542 131.40085343056 195.43597866542 128.26485343056 C 192.17197866542 125.12885343056 190.53997866542 120.61685343056 190.53997866542 114.72885343056 C 190.53997866542 108.84085343056 192.87597866542 103.97685343056 197.54797866542 100.13685343056 C 202.21997866542 96.29685343056 208.12397866542 94.37685343056 215.25997866542 94.37685343056 C 222.39597866542 94.37685343056 228.13997866542 96.18485343056 232.49197866542 99.80085343056 C 236.84397866542 103.41685343056 239.01997866542 108.07285343056 239.01997866542 113.76885343056 L 227.11597866542 114.34485343056 C 226.02797866542 108.77685343056 222.28397866542 105.99285343056 215.88397866542 105.99285343056 C 211.97997866542 105.99285343056 208.92397866542 106.82485343056 206.71597866542 108.48885343056 C 204.50797866542 110.15285343056 203.40397866542 112.12085343056 203.40397866542 114.39285343056 C 203.40397866542 116.66485343056 204.20397866542 118.45685343056 205.80397866542 119.76885343056 C 207.40397866542 121.08085343056 209.38797866542 121.89685343056 211.75597866542 122.21685343056 L 222.69997866542 123.36885343056 C 234.92397866542 125.03285343056 241.03597866542 131.62485343056 241.03597866542 143.14485343056 Z"/><path id="text" fill="#7fba3c" transform="matrix(1.0674209512483073 0 0 1.0674209512483073 338.5004650753707 270.03300832374737)" d="M 102.63195733085 286.14570686112 C 104.77595733085 282.08170686112 107.75195733085 278.94570686112 111.55995733085 276.73770686112 C 115.36795733085 274.52970686112 119.67195733085 273.42570686112 124.47195733085 273.42570686112 C 129.46395733085 273.42570686112 133.76795733085 274.57770686112 137.38395733085 276.88170686112 C 140.99995733085 279.18570686112 143.60795733085 282.12970686112 145.20795733085 285.71370686112 L 145.20795733085 274.19370686112 L 151.92795733085 274.19370686112 L 151.92795733085 326.60970686112 L 145.20795733085 326.60970686112 L 145.20795733085 314.99370686112 C 143.54395733085 318.57770686112 140.90395733085 321.53770686112 137.28795733085 323.87370686112 C 133.67195733085 326.20970686112 129.36795733085 327.37770686112 124.37595733085 327.37770686112 C 119.63995733085 327.37770686112 115.36795733085 326.25770686112 111.55995733085 324.01770686112 C 107.75195733085 321.77770686112 104.77595733085 318.60970686112 102.63195733085 314.51370686112 C 100.48795733085 310.41770686112 99.41595733085 305.68170686112 99.41595733085 300.30570686112 C 99.41595733085 294.92970686112 100.48795733085 290.20970686112 102.63195733085 286.14570686112 Z M 142.61595733085 289.26570686112 C 140.88795733085 286.06570686112 138.53595733085 283.60170686112 135.55995733085 281.87370686112 C 132.58395733085 280.14570686112 129.30395733085 279.28170686112 125.71995733085 279.28170686112 C 122.00795733085 279.28170686112 118.67995733085 280.11370686112 115.73595733085 281.77770686112 C 112.79195733085 283.44170686112 110.47195733085 285.85770686112 108.77595733085 289.02570686112 C 107.07995733085 292.19370686112 106.23195733085 295.95370686112 106.23195733085 300.30570686112 C 106.23195733085 304.59370686112 107.07995733085 308.35370686112 108.77595733085 311.58570686112 C 110.47195733085 314.81770686112 112.79195733085 317.28170686112 115.73595733085 318.97770686112 C 118.67995733085 320.67370686112 122.00795733085 321.52170686112 125.71995733085 321.52170686112 C 129.30395733085 321.52170686112 132.58395733085 320.65770686112 135.55995733085 318.92970686112 C 138.53595733085 317.20170686112 140.88795733085 314.73770686112 142.61595733085 311.53770686112 C 144.34395733085 308.33770686112 145.20795733085 304.62570686112 145.20795733085 300.40170686112 C 145.20795733085 296.17770686112 144.34395733085 292.46570686112 142.61595733085 289.26570686112 Z M 246.29595733085 274.19370686112 L 246.29595733085 326.60970686112 L 239.57595733085 326.60970686112 L 239.57595733085 317.39370686112 C 238.03995733085 320.65770686112 235.67195733085 323.15370686112 232.47195733085 324.88170686112 C 229.27195733085 326.60970686112 225.68795733085 327.47370686112 221.71995733085 327.47370686112 C 215.44795733085 327.47370686112 210.32795733085 325.53770686112 206.35995733085 321.66570686112 C 202.39195733085 317.79370686112 200.40795733085 312.17770686112 200.40795733085 304.81770686112 L 200.40795733085 274.19370686112 L 207.03195733085 274.19370686112 L 207.03195733085 304.04970686112 C 207.03195733085 309.74570686112 208.45595733085 314.09770686112 211.30395733085 317.10570686112 C 214.15195733085 320.11370686112 218.03995733085 321.61770686112 222.96795733085 321.61770686112 C 228.02395733085 321.61770686112 232.05595733085 320.01770686112 235.06395733085 316.81770686112 C 238.07195733085 313.61770686112 239.57595733085 308.91370686112 239.57595733085 302.70570686112 L 239.57595733085 274.19370686112 L 246.29595733085 274.19370686112 Z M 295.44795733085 286.14570686112 C 297.62395733085 282.08170686112 300.61595733085 278.94570686112 304.42395733085 276.73770686112 C 308.23195733085 274.52970686112 312.53595733085 273.42570686112 317.33595733085 273.42570686112 C 321.94395733085 273.42570686112 326.10395733085 274.54570686112 329.81595733085 276.78570686112 C 333.52795733085 279.02570686112 336.24795733085 281.93770686112 337.97595733085 285.52170686112 L 337.97595733085 255.56970686112 L 344.69595733085 255.56970686112 L 344.69595733085 326.60970686112 L 337.97595733085 326.60970686112 L 337.97595733085 314.89770686112 C 336.37595733085 318.54570686112 333.75195733085 321.53770686112 330.10395733085 323.87370686112 C 326.45595733085 326.20970686112 322.16795733085 327.37770686112 317.23995733085 327.37770686112 C 312.43995733085 327.37770686112 308.13595733085 326.25770686112 304.32795733085 324.01770686112 C 300.51995733085 321.77770686112 297.54395733085 318.60970686112 295.39995733085 314.51370686112 C 293.25595733085 310.41770686112 292.18395733085 305.68170686112 292.18395733085 300.30570686112 C 292.18395733085 294.92970686112 293.27195733085 290.20970686112 295.44795733085 286.14570686112 Z M 335.38395733085 289.26570686112 C 333.65595733085 286.06570686112 331.30395733085 283.60170686112 328.32795733085 281.87370686112 C 325.35195733085 280.14570686112 322.07195733085 279.28170686112 318.48795733085 279.28170686112 C 314.77595733085 279.28170686112 311.44795733085 280.11370686112 308.50395733085 281.77770686112 C 305.55995733085 283.44170686112 303.23995733085 285.85770686112 301.54395733085 289.02570686112 C 299.84795733085 292.19370686112 298.99995733085 295.95370686112 298.99995733085 300.30570686112 C 298.99995733085 304.59370686112 299.84795733085 308.35370686112 301.54395733085 311.58570686112 C 303.23995733085 314.81770686112 305.55995733085 317.28170686112 308.50395733085 318.97770686112 C 311.44795733085 320.67370686112 314.77595733085 321.52170686112 318.48795733085 321.52170686112 C 322.07195733085 321.52170686112 325.35195733085 320.65770686112 328.32795733085 318.92970686112 C 331.30395733085 317.20170686112 333.65595733085 314.73770686112 335.38395733085 311.53770686112 C 337.11195733085 308.33770686112 337.97595733085 304.62570686112 337.97595733085 300.40170686112 C 337.97595733085 296.17770686112 337.11195733085 292.46570686112 335.38395733085 289.26570686112 Z M 393.55995733085 262.86570686112 C 392.59995733085 261.90570686112 392.11995733085 260.72170686112 392.11995733085 259.31370686112 C 392.11995733085 257.90570686112 392.59995733085 256.73770686112 393.55995733085 255.80970686112 C 394.51995733085 254.88170686112 395.67195733085 254.41770686112 397.01595733085 254.41770686112 C 398.35995733085 254.41770686112 399.51195733085 254.88170686112 400.47195733085 255.80970686112 C 401.43195733085 256.73770686112 401.91195733085 257.90570686112 401.91195733085 259.31370686112 C 401.91195733085 260.72170686112 401.43195733085 261.90570686112 400.47195733085 262.86570686112 C 399.51195733085 263.82570686112 398.35995733085 264.30570686112 397.01595733085 264.30570686112 C 395.67195733085 264.30570686112 394.51995733085 263.82570686112 393.55995733085 262.86570686112 Z M 400.37595733085 274.19370686112 L 400.37595733085 326.60970686112 L 393.65595733085 326.60970686112 L 393.65595733085 274.19370686112 L 400.37595733085 274.19370686112 Z M 457.97595733085 279.85770686112 L 457.97595733085 312.40170686112 C 457.97595733085 315.60170686112 458.58395733085 317.80970686112 459.79995733085 319.02570686112 C 461.01595733085 320.24170686112 463.15995733085 320.84970686112 466.23195733085 320.84970686112 L 472.37595733085 320.84970686112 L 472.37595733085 326.60970686112 L 465.17595733085 326.60970686112 C 460.43995733085 326.60970686112 456.91995733085 325.50570686112 454.61595733085 323.29770686112 C 452.31195733085 321.08970686112 451.15995733085 317.45770686112 451.15995733085 312.40170686112 L 451.15995733085 279.85770686112 L 443.86395733085 279.85770686112 L 443.86395733085 274.19370686112 L 451.15995733085 274.19370686112 L 451.15995733085 261.04170686112 L 457.97595733085 261.04170686112 L 457.97595733085 274.19370686112 L 472.37595733085 274.19370686112 L 472.37595733085 279.85770686112 L 457.97595733085 279.85770686112 Z"/></svg>